<svg
    width={117}
    height={27}
    viewBox="0 0 117 27"
    fill="none"
    xmlns="http://www.w3.org/2000/svg"
    {...props}
  >
    <path
      d="M35.6408 2.97867H38.5486L47.2411 23.939L41.8586 24.6973L40.4975 21.027H33.6919L32.3308 24.6973L26.9482 23.939L35.6408 2.97867ZM37.0947 11.8967L35.2386 16.841H38.9198L37.0947 11.8967Z"
      fill="#1ED760"
    />
    <path
      d="M60.0663 24.6973L54.1579 16.2343V24.3333H48.7753V3.1H55.4571C57.7669 3.1 59.6332 3.737 61.0562 5.011C62.4792 6.285 63.1907 7.98367 63.1907 10.107C63.1907 11.4214 62.8607 12.5741 62.2008 13.565C61.5615 14.5357 60.6953 15.2839 59.6023 15.8097L65.418 23.6963L60.0663 24.6973ZM54.1579 7.52867V12.6853H54.9003C55.8077 12.6853 56.5192 12.4629 57.0348 12.018C57.5503 11.5731 57.8081 10.9361 57.8081 10.107C57.8081 9.27789 57.5503 8.64089 57.0348 8.196C56.5192 7.75111 55.8077 7.52867 54.9003 7.52867H54.1579Z"
      fill="#1ED760"
    />
    <path
      d="M79.1637 19.6013V24.3333H66.7281V3.1H78.8853V7.832H72.1107V10.6833H78.2047V15.4153H72.1107V19.6013H79.1637Z"
      fill="#1ED760"
    />
    <path
      d="M94.8387 14.5357V3.1H100.221V24.212L97.5609 24.6973L87.0123 12.8977V24.3333H81.6297V3.22133L84.2901 2.736L94.8387 14.5357Z"
      fill="#1ED760"
    />
    <path
      d="M102.152 7.832V3.1H117V7.832H112.267V24.3333H106.884V7.832H102.152Z"
      fill="#1ED760"
    />
    <path
      d="M13.2576 0.5C5.93559 0.5 0 6.3203 0 13.5C0 20.6797 5.93559 26.5 13.2576 26.5C19.8267 26.5 25.2799 21.815 26.3318 15.6667H26.2367C25.2555 19.4047 21.7951 22.1667 17.6768 22.1667C12.7955 22.1667 8.83838 18.2865 8.83838 13.5C8.83838 8.71352 12.7955 4.83333 17.6768 4.83333C21.7951 4.83333 25.2555 7.59534 26.2367 11.3333H26.3318C25.2799 5.18495 19.8267 0.5 13.2576 0.5Z"
      fill="#1ED760"
    />
    <path
      d="M0 13.5C0 6.3203 5.93559 0.5 13.2576 0.5C19.8267 0.5 25.2799 5.18495 26.3318 11.3333H17.3983C16.4172 7.59534 12.9567 4.83333 8.83838 4.83333C3.95708 4.83333 0 8.71353 0 13.5Z"
      fill="#008A31"
    />
    <path
      d="M0 13.5C0 20.6797 5.93559 26.5 13.2576 26.5C19.8267 26.5 25.2799 21.815 26.3318 15.6667H17.3983C16.4172 19.4047 12.9567 22.1667 8.83838 22.1667C3.95708 22.1667 0 18.2865 0 13.5Z"
      fill="#008A31"
    />
  </svg>

